<svg width="55" height="33" viewBox="0 0 55 33" fill="none" xmlns="http://www.w3.org/2000/svg">
<rect x="0.5625" y="0.5625" width="52.957" height="31.585" rx="7.33301" fill="white"/>
<rect x="0.5625" y="0.5625" width="52.957" height="31.585" rx="7.33301" stroke="black" stroke-width="1.125"/>
<g clip-path="url(#clip0_2001_13151)">
<path fill-rule="evenodd" clip-rule="evenodd" d="M27.9391 14.5039C27.9356 15.1051 28.453 15.5954 29.0943 15.5986L34.934 15.6278C35.5747 15.6311 36.0966 15.1469 36.1001 14.5463L36.1262 9.96383C36.1278 9.67511 36.007 9.39754 35.7903 9.19222L32.8867 6.4408C32.4357 6.01344 31.7008 6.00951 31.2452 6.43204L28.3093 9.15526C28.0906 9.35807 27.9668 9.63403 27.9652 9.92249L27.9391 14.5039ZM31.2329 8.59605C31.6884 8.17352 32.4233 8.17744 32.8743 8.6048L34.1545 9.81788C34.3712 10.0232 34.492 10.3008 34.4904 10.5895L34.4766 13.0079C34.4731 13.6085 33.9512 14.0927 33.3105 14.0894L30.7353 14.0765C30.0939 14.0733 29.5766 13.5831 29.58 12.9818L29.5938 10.5645C29.5954 10.2761 29.7192 10.0001 29.9378 9.79727L31.2329 8.59605Z" fill="black"/>
<path fill-rule="evenodd" clip-rule="evenodd" d="M19.2859 6.93262C17.7948 6.93262 16.5859 8.0659 16.5859 9.46387V13.2607C16.5859 14.6587 17.7948 15.792 19.2859 15.792H23.3359C24.8271 15.792 26.0359 14.6587 26.0359 13.2607V9.46387C26.0359 8.0659 24.8271 6.93262 23.3359 6.93262H19.2859ZM17.9359 9.46387C17.9359 8.76488 18.5404 8.19824 19.2859 8.19824H23.3359C24.0815 8.19824 24.6859 8.76488 24.6859 9.46387V13.2607C24.6859 13.9597 24.0815 14.5264 23.3359 14.5264H19.2859C18.5404 14.5264 17.9359 13.9597 17.9359 13.2607V9.46387Z" fill="black"/>
<path fill-rule="evenodd" clip-rule="evenodd" d="M16.5859 19.5889C16.5859 18.1909 17.7948 17.0576 19.2859 17.0576H23.3359C24.8271 17.0576 26.0359 18.1909 26.0359 19.5889V23.3857C26.0359 24.7837 24.8271 25.917 23.3359 25.917H19.2859C17.7948 25.917 16.5859 24.7837 16.5859 23.3857V19.5889ZM19.2859 18.3232C18.5404 18.3232 17.9359 18.8899 17.9359 19.5889V23.3857C17.9359 24.0847 18.5404 24.6514 19.2859 24.6514H23.3359C24.0815 24.6514 24.6859 24.0847 24.6859 23.3857V19.5889C24.6859 18.8899 24.0815 18.3232 23.3359 18.3232H19.2859Z" fill="black"/>
<path fill-rule="evenodd" clip-rule="evenodd" d="M30.0862 17.0576C28.5951 17.0576 27.3862 18.1909 27.3862 19.5889V23.3857C27.3862 24.7837 28.5951 25.917 30.0862 25.917H34.1362C35.6274 25.917 36.8362 24.7837 36.8362 23.3857V19.5889C36.8362 18.1909 35.6274 17.0576 34.1362 17.0576H30.0862ZM28.7362 19.5889C28.7362 18.8899 29.3407 18.3232 30.0862 18.3232H34.1362C34.8818 18.3232 35.4862 18.8899 35.4862 19.5889V23.3857C35.4862 24.0847 34.8818 24.6514 34.1362 24.6514H30.0862C29.3407 24.6514 28.7362 24.0847 28.7362 23.3857V19.5889Z" fill="black"/>
</g>
<defs>
<clipPath id="clip0_2001_13151">
<rect width="22.5" height="21.375" fill="white" transform="translate(15.791 5.66699)"/>
</clipPath>
</defs>
</svg>
