<svg width="162" height="42" viewBox="0 0 162 42" fill="none" xmlns="http://www.w3.org/2000/svg">
<path d="M159.371 1.51653L154.994 7.09306V7.18248L161.951 6.28978V9.32368L154.994 8.52039V8.60981L159.417 13.9627L156.514 15.5684L153.749 9.32347H153.657L150.662 15.613L148.036 14.0073L152.413 8.56499V8.47579L145.593 9.32368V6.28978L152.367 7.13767V7.04825L148.035 1.60595L150.846 0.0448122L153.703 6.24496H153.795L156.606 0L159.371 1.51653Z" fill="black"/>
<path d="M2.07632 18.6613C1.36089 16.8525 0.668925 15.8139 0 15.5457V15.3447H8.37437V15.5457C7.8667 15.9033 7.77413 16.4953 8.0975 17.3213L10.3816 23.1842L11.6275 19.4656L11.316 18.6613C10.97 17.7904 10.6354 17.087 10.3125 16.5509C9.98909 16.0148 9.74688 15.6797 9.58584 15.5457V15.3447H17.5794V15.5457C17.0717 15.9033 16.9791 16.4953 17.3027 17.3213L19.5866 23.1842L21.2476 18.293C21.5012 17.5111 21.5989 16.9142 21.5417 16.5007C21.4838 16.0876 21.2476 15.7691 20.8325 15.5457V15.3447H24.6043V15.5457C23.9351 15.8139 23.2427 16.8525 22.5279 18.6613L17.0949 32.2629H16.7145L12.3197 21.1741L7.88996 32.2629H7.50931L2.07632 18.6613Z" fill="black"/>
<path d="M28.0275 39.1299C27.7732 39.1299 27.5138 39.1074 27.2488 39.063C26.9833 39.0178 26.7353 38.9401 26.5047 38.8283L26.0203 32.7981L26.2972 32.6976C26.92 33.6799 27.9003 34.1718 29.2385 34.1718C30.0459 34.1718 30.7898 33.9819 31.4705 33.602C32.1506 33.2222 32.6299 32.7197 32.9068 32.0946L33.1834 31.4581L27.8544 18.6603C27.0931 16.8515 26.3783 15.8129 25.709 15.5447V15.3438H34.0836V15.5447C33.5992 15.8798 33.518 16.4718 33.8411 17.3203L36.4365 23.6188L38.3051 18.292C38.582 17.5102 38.6909 16.9132 38.6339 16.4997C38.5759 16.0866 38.351 15.7681 37.9589 15.5447V15.3438H41.7309V15.5447C41.0613 15.8129 40.3468 16.8515 39.5855 18.6603L32.5606 35.5449C32.0527 36.7955 31.4415 37.7059 30.7265 38.2758C30.011 38.8452 29.1115 39.1299 28.0275 39.1299Z" fill="black"/>
<path d="M54.3772 14.842C55.8998 14.842 57.0992 15.2328 57.9759 16.0146C58.8526 16.7964 59.2909 17.8461 59.2909 19.1634V28.477C59.2909 29.9959 59.5904 31.023 60.1907 31.5591V31.76H52.1623V31.5591C52.7621 31.023 53.062 29.9959 53.062 28.477V19.1634C53.062 17.7565 52.6122 17.053 51.7123 17.053C51.0662 17.053 50.5585 17.3661 50.1897 17.9912C49.8205 18.6167 49.636 19.4543 49.636 20.5038V28.477C49.636 29.9959 49.9355 31.023 50.5357 31.5591V31.76H42.5073V31.5591C43.1071 31.023 43.407 29.9959 43.407 28.477V18.5272C43.407 17.9464 43.3379 17.4886 43.1995 17.1535C43.0613 16.8183 42.8303 16.5059 42.5073 16.2153V16.0144C44.1683 15.8802 45.6392 15.7185 46.9196 15.5286C48.2 15.3391 49.0592 15.11 49.4978 14.8418L49.74 14.9423L49.5324 17.254H49.6018C50.0629 16.45 50.709 15.8466 51.5396 15.4446C52.37 15.0429 53.3158 14.842 54.3772 14.842Z" fill="black"/>
<path d="M61.8849 18.6613C61.1695 16.8525 60.4775 15.8139 59.8086 15.5457V15.3447H68.183V15.5457C67.6753 15.9033 67.5827 16.4953 67.9061 17.3213L70.1902 23.1842L71.4361 19.4656L71.1246 18.6613C70.7786 17.7904 70.444 17.087 70.1211 16.5509C69.7977 16.0148 69.5555 15.6797 69.3944 15.5457V15.3447H77.3879V15.5457C76.8803 15.9033 76.7877 16.4953 77.1113 17.3213L79.3952 23.1842L81.0562 18.293C81.3098 17.5111 81.4075 16.9142 81.3503 16.5007C81.2923 16.0876 81.0562 15.7691 80.6411 15.5457V15.3447H84.4128V15.5457C83.7437 15.8139 83.0513 16.8525 82.3365 18.6613L76.9035 32.2629H76.5231L72.1283 21.1741L67.6985 32.2629H67.3179L61.8849 18.6613Z" fill="black"/>
<path d="M92.152 14.8418C93.9282 14.8418 95.474 15.2222 96.7891 15.9809C98.1041 16.7406 99.1302 17.7846 99.8691 19.1131C100.607 20.4425 100.976 21.9891 100.976 23.7532C100.976 25.4509 100.619 26.9418 99.9036 28.2259C99.1881 29.5102 98.1732 30.504 96.8584 31.2075C95.5436 31.9109 93.9743 32.2625 92.1523 32.2625C90.3296 32.2625 88.7609 31.9109 87.4461 31.2075C86.1311 30.504 85.1155 29.5102 84.4009 28.2259C83.6855 26.9415 83.3281 25.4509 83.3281 23.7532C83.3281 21.9891 83.6969 20.4425 84.4354 19.1131C85.1734 17.7846 86.2058 16.7406 87.5324 15.9809C88.8584 15.222 90.3984 14.8418 92.152 14.8418ZM92.152 15.9809C91.5753 15.9809 91.1193 16.2103 90.7849 16.6676C90.4503 17.1258 90.2195 17.9186 90.0927 19.0462C89.9659 20.1743 89.9024 21.7548 89.9024 23.7868C89.9024 25.7297 89.9657 27.2321 90.0927 28.2926C90.2193 29.3537 90.4443 30.0907 90.7677 30.5038C91.0904 30.9173 91.5516 31.1233 92.1518 31.1233C92.7514 31.1233 93.2126 30.9171 93.536 30.5038C93.8587 30.0907 94.0837 29.3537 94.2107 28.2926C94.3373 27.2319 94.4012 25.7297 94.4012 23.7868C94.4012 21.7548 94.3375 20.1743 94.2107 19.0462C94.0839 17.9186 93.8589 17.1258 93.536 16.6676C93.2128 16.2103 92.7516 15.9809 92.152 15.9809Z" fill="black"/>
<path d="M111.703 14.8418C113.479 14.8418 115.025 15.2222 116.34 15.9809C117.655 16.7406 118.681 17.7846 119.42 19.1131C120.158 20.4425 120.528 21.9891 120.528 23.7532C120.528 25.4509 120.17 26.9418 119.455 28.2259C118.739 29.5102 117.724 30.504 116.41 31.2075C115.095 31.9109 113.526 32.2625 111.704 32.2625C109.881 32.2625 108.312 31.9109 106.997 31.2075C105.682 30.504 104.667 29.5102 103.952 28.2259C103.237 26.9415 102.879 25.4509 102.879 23.7532C102.879 21.9891 103.248 20.4425 103.987 19.1131C104.725 17.7846 105.757 16.7406 107.084 15.9809C108.41 15.222 109.95 14.8418 111.703 14.8418ZM111.703 15.9809C111.127 15.9809 110.671 16.2103 110.336 16.6676C110.002 17.1258 109.771 17.9186 109.644 19.0462C109.517 20.1743 109.454 21.7548 109.454 23.7868C109.454 25.7297 109.517 27.2321 109.644 28.2926C109.771 29.3537 109.996 30.0907 110.319 30.5038C110.642 30.9173 111.103 31.1233 111.703 31.1233C112.303 31.1233 112.764 30.9171 113.087 30.5038C113.41 30.0907 113.635 29.3537 113.762 28.2926C113.889 27.2319 113.953 25.7297 113.953 23.7868C113.953 21.7548 113.889 20.1743 113.762 19.0462C113.635 17.9186 113.41 17.1258 113.087 16.6676C112.764 16.2103 112.303 15.9809 111.703 15.9809Z" fill="black"/>
<path d="M122.507 24.1219C122.507 22.1785 122.882 20.5152 123.632 19.1302C124.381 17.7454 125.408 16.6843 126.712 15.9473C128.015 15.2107 129.474 14.842 131.089 14.842C132.127 14.842 132.842 14.9539 133.235 15.1771V11.4915C133.235 10.9112 133.166 10.4529 133.027 10.1183C132.889 9.78318 132.658 9.47074 132.335 9.18019V8.97927C133.996 8.84504 135.467 8.6833 136.747 8.49342C138.028 8.30395 138.887 8.07447 139.325 7.80664L139.568 7.9071C139.544 8.13075 139.521 8.47695 139.498 8.94571C139.475 9.41447 139.464 9.90636 139.464 10.4199V28.5777C139.464 29.1359 139.533 29.5882 139.671 29.9344C139.81 30.281 140.04 30.599 140.364 30.889V31.0899C138.703 31.2241 137.237 31.3863 135.969 31.5757C134.7 31.7652 133.835 31.9947 133.374 32.2625L133.131 32.162L133.339 30.1186H133.27C132.969 30.7441 132.422 31.2577 131.626 31.6595C130.83 32.0616 129.935 32.2625 128.944 32.2625C127.675 32.2625 126.556 31.9219 125.587 31.241C124.618 30.5596 123.862 29.605 123.32 28.3765C122.778 27.1485 122.507 25.7297 122.507 24.1219ZM129.082 22.9493C129.082 25.1826 129.318 26.908 129.792 28.1254C130.264 29.3428 130.928 29.9508 131.781 29.9508C132.542 29.9508 133.027 29.4821 133.235 28.5439V16.7178C133.188 16.4948 133.044 16.3158 132.802 16.1818C132.56 16.0482 132.277 15.9808 131.954 15.9808C131.031 15.9808 130.322 16.5732 129.826 17.7564C129.33 18.9405 129.082 20.6711 129.082 22.9493Z" fill="black"/>
<path d="M45.0527 37.5068H45.5522V39.2335H47.7999V37.5068H48.2994V41.5821H47.7999V39.6824H45.5522V41.5821H45.0527V37.5068Z" fill="black"/>
<path d="M58.9016 41.6863C58.5805 41.6863 58.2862 41.6324 58.0186 41.5246C57.751 41.4177 57.5191 41.2686 57.323 41.0788C57.1267 40.8889 56.9742 40.6623 56.8651 40.3997C56.7561 40.1365 56.7017 39.8515 56.7017 39.5445C56.7017 39.2381 56.7561 38.9526 56.8651 38.69C56.9742 38.4273 57.1267 38.2008 57.323 38.0109C57.5191 37.821 57.751 37.672 58.0186 37.5644C58.2862 37.4575 58.5803 37.4033 58.9016 37.4033C59.2226 37.4033 59.5171 37.4573 59.7845 37.5644C60.0521 37.672 60.284 37.821 60.4801 38.0109C60.6762 38.2008 60.8289 38.4273 60.9378 38.69C61.0468 38.9526 61.1015 39.2381 61.1015 39.5445C61.1015 39.8515 61.0468 40.1365 60.9378 40.3997C60.8287 40.6623 60.6762 40.8889 60.4801 41.0788C60.284 41.2686 60.0519 41.4177 59.7845 41.5246C59.5169 41.6321 59.2226 41.6863 58.9016 41.6863ZM58.9016 41.2374C59.1474 41.2374 59.3722 41.193 59.5765 41.1046C59.7806 41.0162 59.9561 40.8956 60.1027 40.7422C60.2493 40.5883 60.3632 40.4093 60.4446 40.2038C60.5258 39.9989 60.5667 39.7788 60.5667 39.5445C60.5667 39.3107 60.5258 39.0908 60.4446 38.8859C60.3632 38.6804 60.2493 38.5007 60.1027 38.3475C59.9561 38.1943 59.7806 38.0734 59.5765 37.985C59.3722 37.8967 59.1474 37.8523 58.9016 37.8523C58.6557 37.8523 58.4309 37.8967 58.2268 37.985C58.0225 38.0734 57.847 38.1941 57.7006 38.3475C57.5538 38.5007 57.4399 38.6804 57.3587 38.8859C57.2774 39.0908 57.2367 39.3109 57.2367 39.5445C57.2367 39.7788 57.2774 39.9989 57.3587 40.2038C57.4399 40.4093 57.5538 40.5883 57.7006 40.7422C57.847 40.8953 58.0227 41.0162 58.2268 41.1046C58.4307 41.193 58.6557 41.2374 58.9016 41.2374Z" fill="black"/>
<path d="M72.661 40.0288C72.661 40.2512 72.6321 40.4627 72.5746 40.6622C72.5172 40.8617 72.4261 41.0371 72.3012 41.1887C72.1763 41.3402 72.0129 41.4615 71.8105 41.5518C71.6082 41.642 71.3625 41.687 71.0732 41.687C70.7838 41.687 70.5381 41.642 70.3358 41.5518C70.1334 41.4615 69.97 41.3402 69.8451 41.1887C69.7202 41.0371 69.629 40.8617 69.5715 40.6622C69.514 40.4627 69.4854 40.2512 69.4854 40.0288V37.5078H69.9848V39.9598C69.9848 40.1251 70.0027 40.2843 70.0384 40.4375C70.0742 40.5913 70.1336 40.7272 70.2169 40.8462C70.3 40.9652 70.4111 41.0601 70.5498 41.1312C70.6884 41.2026 70.863 41.2381 71.0732 41.2381C71.2831 41.2381 71.4575 41.2026 71.5965 41.1312C71.7352 41.0603 71.8463 40.9652 71.9294 40.8462C72.0127 40.7272 72.0721 40.5913 72.1079 40.4375C72.1436 40.2843 72.1615 40.1251 72.1615 39.9598V37.5078H72.661V40.0288Z" fill="black"/>
<path d="M83.2863 38.2264C83.2029 38.0959 83.0921 38.0011 82.9532 37.9415C82.8143 37.8821 82.6697 37.8519 82.5192 37.8519C82.4083 37.8519 82.2991 37.8656 82.1921 37.8921C82.0851 37.9192 81.9889 37.9594 81.9036 38.013C81.8184 38.067 81.7499 38.138 81.6985 38.2264C81.647 38.3148 81.6212 38.4182 81.6212 38.5372C81.6212 38.6291 81.636 38.7108 81.666 38.7817C81.6957 38.8525 81.7441 38.9169 81.8115 38.9747C81.8789 39.0324 81.9702 39.0858 82.0851 39.1358C82.1999 39.1856 82.3407 39.2356 82.5073 39.2854C82.6699 39.3353 82.8275 39.3894 82.9801 39.4472C83.1328 39.5043 83.2675 39.5777 83.3844 39.666C83.5013 39.7544 83.5944 39.8642 83.6639 39.9966C83.733 40.1294 83.7679 40.2953 83.7679 40.4947C83.7679 40.698 83.7263 40.8745 83.643 41.0242C83.5599 41.1738 83.4499 41.2976 83.3132 41.3956C83.1765 41.4935 83.0189 41.5663 82.8404 41.6144C82.6619 41.6626 82.4776 41.6865 82.2875 41.6865C82.1646 41.6865 82.0416 41.6757 81.9187 41.6547C81.7958 41.6336 81.6778 41.6007 81.565 41.5567C81.4519 41.5129 81.346 41.4552 81.247 41.3843C81.1477 41.3135 81.0627 41.2257 80.9912 41.1223L81.4194 40.7828C81.5105 40.9324 81.6373 41.0454 81.7999 41.1223C81.9624 41.1992 82.1349 41.2378 82.3172 41.2378C82.4242 41.2378 82.5323 41.2222 82.6412 41.1915C82.7504 41.1609 82.8484 41.1159 82.9356 41.0563C83.0227 40.9966 83.094 40.9229 83.1496 40.8345C83.2051 40.7461 83.2329 40.6446 83.2329 40.5291C83.2329 40.403 83.2109 40.3001 83.1674 40.2215C83.1237 40.1427 83.0565 40.0748 82.9653 40.0172C82.874 39.9595 82.759 39.9078 82.6204 39.8615C82.4817 39.8159 82.3192 39.7617 82.1327 39.7004C81.982 39.6542 81.8434 39.6018 81.7165 39.5424C81.5897 39.483 81.4797 39.4097 81.3867 39.3236C81.2935 39.2371 81.2203 39.1331 81.1667 39.0122C81.1131 38.8913 81.0864 38.7466 81.0864 38.5776C81.0864 38.3817 81.126 38.211 81.2052 38.0655C81.2844 37.9194 81.3917 37.7975 81.5262 37.6995C81.661 37.6022 81.8136 37.5282 81.9842 37.4784C82.1545 37.4285 82.3329 37.4033 82.5192 37.4033C82.7571 37.4033 82.9741 37.4388 83.1702 37.5096C83.3666 37.5811 83.5418 37.7043 83.6964 37.881L83.2863 38.2264Z" fill="black"/>
<path d="M92.1938 37.5068H94.8398V37.9558H92.6933V39.2335H94.6971V39.6824H92.6933V41.1331H94.9471V41.5821H92.1941V37.5068H92.1938Z" fill="black"/>
</svg>
